<?xml version="1.0" encoding="iso-8859-1"?>
<!-- Generator: Adobe Illustrator 19.0.0, SVG Export Plug-In . SVG Version: 6.00 Build 0)  -->
<svg version="1.1" id="Capa_1" xmlns="http://www.w3.org/2000/svg" xmlns:xlink="http://www.w3.org/1999/xlink" x="0px" y="0px"
	 viewBox="0 0 512 512" style="enable-background:new 0 0 512 512;" xml:space="preserve">
<circle style="fill:#5D7A9A;" cx="256" cy="259.806" r="252.194"/>
<path style="fill:#A0B7CB;" d="M256,117.724l229.928,38.321c-18.783-41.558-48.512-77.102-85.497-102.988L256,77.13L111.569,53.058
	c-36.986,25.885-66.714,61.43-85.497,102.988L256,117.724z"/>
<path style="fill:#4E565A;" d="M327.041,391.738H184.959c-19.617,0-35.52,15.903-35.52,35.52v3.167L256,462.779l106.561-32.353
	v-3.167C362.561,407.641,346.658,391.738,327.041,391.738z"/>
<path style="fill:#3E474C;" d="M256,46.176c-4.204,0-7.611-3.408-7.611-7.611V7.611C248.389,3.408,251.796,0,256,0
	c4.204,0,7.612,3.408,7.612,7.611v30.953C263.612,42.768,260.204,46.176,256,46.176z"/>
<rect x="225.554" y="56.833" style="fill:#DFCE4E;" width="60.892" height="101.487"/>
<path style="fill:#8D472E;" d="M292.521,69.011h-73.042c-6.079,0-9.705-6.775-6.333-11.833l7.889-11.833
	c2.823-4.235,7.576-6.779,12.667-6.779h44.597c5.09,0,9.843,2.544,12.667,6.779l7.889,11.833
	C302.226,62.236,298.6,69.011,292.521,69.011z"/>
<path style="fill:#AB5034;" d="M256.014,69.011h-36.535c-6.079,0-9.705-6.775-6.333-11.833l7.889-11.833
	c2.823-4.235,7.576-6.779,12.667-6.779h8.091c5.09,0,9.843,2.544,12.667,6.779l7.889,11.833
	C265.719,62.236,262.093,69.011,256.014,69.011z"/>
<path style="fill:#3E474C;" d="M296.595,110.113h-81.189c-4.204,0-7.612,3.408-7.612,7.611c0,4.204,3.408,7.612,7.612,7.612h2.537
	v22.834c0,4.204,3.408,7.611,7.611,7.611c4.204,0,7.611-3.408,7.611-7.611v-22.834h15.223v22.834c0,4.204,3.408,7.611,7.611,7.611
	c4.204,0,7.612-3.408,7.612-7.611v-22.834h15.223v22.834c0,4.204,3.408,7.611,7.611,7.611c4.204,0,7.612-3.408,7.612-7.611v-22.834
	h2.537c4.204,0,7.611-3.408,7.611-7.612C304.206,113.521,300.798,110.113,296.595,110.113z"/>
<polygon style="fill:#A0B7CB;" points="307.237,239.909 272.238,197.899 209.845,200.952 201.038,268.47 256.036,320.712 
	317.013,314.86 "/>
<polygon style="fill:#8D472E;" points="296.595,158.319 215.405,158.319 209.845,200.952 307.237,239.909 "/>
<polygon style="fill:#A0B7CB;" points="192.231,335.988 184.959,391.738 327.041,391.738 326.789,389.811 256.036,320.712 "/>
<polygon style="fill:#8D472E;" points="317.013,314.86 201.038,268.47 192.231,335.988 326.789,389.811 "/>
<g>
	<polygon style="fill:#AB5034;" points="272.042,296.872 246.689,272.522 201.038,268.47 192.231,335.988 281.818,371.823 	"/>
	<path style="fill:#AB5034;" d="M261.259,214.198c-0.988-7.582-7.449-13.254-15.095-13.254h-36.318l-0.001,0.008l52.422,20.968
		L261.259,214.198z"/>
</g>
<polygon style="fill:#BDCDD4;" points="262.266,221.921 209.845,200.952 201.038,268.47 272.042,296.872 "/>
<path style="fill:#A0B7CB;" d="M299.639,178.616h-87.278c-3.923,0-7.104-3.181-7.104-7.104v-16.238c0-3.923,3.181-7.104,7.104-7.104
	h87.278c3.923,0,7.104,3.181,7.104,7.104v16.238C306.743,175.436,303.563,178.616,299.639,178.616z"/>
<path style="fill:#BDCDD4;" d="M245.851,178.616h-33.491c-3.923,0-7.104-3.181-7.104-7.104v-16.238c0-3.923,3.181-7.104,7.104-7.104
	h33.491V178.616z"/>
<polygon style="fill:#8D472E;" points="278.073,330.846 247.881,361.292 302.176,391.738 332.369,330.846 "/>
<polygon style="fill:#BDCDD4;" points="332.369,330.846 302.176,361.292 274.268,391.738 302.176,430.303 362.561,422.184 
	362.561,361.292 "/>
<polygon style="fill:#A0B7CB;" points="302.176,361.292 247.881,361.292 247.881,422.184 302.176,430.303 "/>
<g>
	<path style="fill:#3E474C;" d="M332.369,429.796c-4.204,0-7.611-3.408-7.611-7.611v-30.446c0-4.204,3.408-7.612,7.611-7.612
		c4.204,0,7.612,3.408,7.612,7.612v30.446C339.98,426.388,336.572,429.796,332.369,429.796z"/>
	<path style="fill:#3E474C;" d="M408.23,457.705c0-19.617-15.903-35.52-35.52-35.52H139.29c-19.617,0-35.52,15.903-35.52,35.52
		v3.167C146.077,492.953,198.811,512,256,512s109.923-19.047,152.23-51.128V457.705z"/>
</g>
<g>
</g>
<g>
</g>
<g>
</g>
<g>
</g>
<g>
</g>
<g>
</g>
<g>
</g>
<g>
</g>
<g>
</g>
<g>
</g>
<g>
</g>
<g>
</g>
<g>
</g>
<g>
</g>
<g>
</g>
</svg>
