<?xml version="1.0" encoding="UTF-8"?>
<svg width="67px" height="137px" viewBox="0 0 67 137" version="1.1" xmlns="http://www.w3.org/2000/svg" xmlns:xlink="http://www.w3.org/1999/xlink">
    <!-- Generator: Sketch 46.2 (44496) - http://www.bohemiancoding.com/sketch -->
    <title>lighthouse (2)</title>
    <desc>Created with Sketch.</desc>
    <defs></defs>
    <g id="Page-1" stroke="none" stroke-width="1" fill="none" fill-rule="evenodd">
        <g id="lighthouse-(2)" transform="translate(-99.000000, -57.000000)">
            <rect id="Rectangle-5" x="0" y="0" width="676" height="193"></rect>
            <path d="M154.833438,181 L110.166562,181 C103.999489,181 99,185.924846 99,191.999845 L99,192.980603 L166,192.980603 L166,192.000155 C166,185.924846 161.000511,181 154.833438,181 Z" id="Shape" fill="#4E565A" fill-rule="nonzero"></path>
            <path d="M133.499836,71 C132.11903,71 131,69.966736 131,68.6924376 L131,59.3075624 C131,58.033264 132.11903,57 133.499836,57 C134.880641,57 136,58.033264 136,59.3075624 L136,68.6921344 C136,69.966736 134.880641,71 133.499836,71 Z" id="Shape" fill="#3E474C" fill-rule="nonzero"></path>
            <rect id="Rectangle-path" fill="#DFCE4E" fill-rule="nonzero" x="123" y="75" width="19" height="32"></rect>
            <path d="M144.582019,79 L121.417855,79 C119.489992,79 118.340061,76.7746756 119.409439,75.1133191 L121.911316,71.2266382 C122.806588,69.8356052 124.31393,69 125.928464,69 L140.071727,69 C141.685943,69 143.193285,69.8356052 144.088874,71.2266382 L146.590751,75.1133191 C147.659813,76.7746756 146.509882,79 144.582019,79 Z" id="Shape" fill="#8D472E" fill-rule="nonzero"></path>
            <path d="M132.6441,79 L121.355653,79 C119.477386,79 118.357038,76.7746756 119.398906,75.1133191 L121.83642,71.2266382 C122.70866,69.8356052 124.177224,69 125.750222,69 L128.250149,69 C129.822838,69 131.291402,69.8356052 132.163951,71.2266382 L134.601465,75.1133191 C135.642715,76.7746756 134.522367,79 132.6441,79 Z" id="Shape" fill="#AB5034" fill-rule="nonzero"></path>
            <path d="M146.55308,92 L120.447563,92 C119.095809,92 118,93.0447578 118,94.3332311 C118,95.622011 119.095809,96.6667689 120.447563,96.6667689 L121.26331,96.6667689 L121.26331,103.666769 C121.26331,104.955549 122.359119,106 123.710552,106 C125.062306,106 126.157793,104.955242 126.157793,103.666769 L126.157793,96.6667689 L131.052598,96.6667689 L131.052598,103.666769 C131.052598,104.955549 132.148406,106 133.499839,106 C134.851594,106 135.947402,104.955242 135.947402,103.666769 L135.947402,96.6667689 L140.842207,96.6667689 L140.842207,103.666769 C140.842207,104.955549 141.938015,106 143.289448,106 C144.641203,106 145.737011,104.955242 145.737011,103.666769 L145.737011,96.6667689 L146.552758,96.6667689 C147.904513,96.6667689 149,95.622011 149,94.3332311 C149.000321,93.0447578 147.904513,92 146.55308,92 Z" id="Shape" fill="#3E474C" fill-rule="nonzero"></path>
            <polygon id="Shape" fill="#A0B7CB" fill-rule="nonzero" points="148.965415 133.340526 138.101315 120 118.733796 120.969498 116 142.410242 133.072024 159 152 157.141663"></polygon>
            <polygon id="Shape" fill="#8D472E" fill-rule="nonzero" points="145.612638 107 119.769755 107 118 120.585709 149 133"></polygon>
            <polygon id="Shape" fill="#A0B7CB" fill-rule="nonzero" points="112.303177 162.731676 110 180 155 180 154.920187 179.40312 132.511402 158"></polygon>
            <polygon id="Shape" fill="#8D472E" fill-rule="nonzero" points="151.948587 156.910129 115.748956 142 113 163.700843 155 181"></polygon>
            <g id="Group" transform="translate(113.000000, 120.000000)" fill-rule="nonzero" fill="#AB5034">
                <polygon id="Shape" points="25.7913111 30.4133023 17.6220111 22.7685349 2.91224444 21.4963953 0.0744333333 42.693907 28.9413556 53.9444302"></polygon>
                <path d="M22.3167889,4.45751163 C21.9984333,2.07711628 19.9165556,0.296372093 17.4528444,0.296372093 L5.75037778,0.296372093 L5.75005556,0.298883721 L22.6415889,6.88186047 L22.3167889,4.45751163 Z" id="Shape"></path>
            </g>
            <polygon id="Shape" fill="#BDCDD4" fill-rule="nonzero" points="134.970988 126.558278 118.728776 120 116 141.116972 138 150"></polygon>
            <path d="M146.760006,114 L119.239994,114 C118.003015,114 117,112.955199 117,111.666689 L117,106.333311 C117,105.044801 118.003015,104 119.239994,104 L146.760006,104 C147.996985,104 149,105.044801 149,106.333311 L149,111.666689 C149,112.955528 147.9973,114 146.760006,114 Z" id="Shape" fill="#A0B7CB" fill-rule="nonzero"></path>
            <path d="M130,114 L119.27496,114 C118.018672,114 117,112.955199 117,111.666689 L117,106.333311 C117,105.044801 118.018672,104 119.27496,104 L130,104 L130,114 Z" id="Shape" fill="#BDCDD4" fill-rule="nonzero"></path>
            <polygon id="Shape" fill="#8D472E" fill-rule="nonzero" points="140.648518 162 131 171.5 148.351162 181 158 162"></polygon>
            <polygon id="Shape" fill="#BDCDD4" fill-rule="nonzero" points="156.425334 162 146.850351 171.48979 138 180.979579 146.850351 193 166 190.469369 166 171.48979"></polygon>
            <polygon id="Shape" fill="#A0B7CB" fill-rule="nonzero" points="148 171 131 171 131 190.411746 148 193"></polygon>
            <g id="Group" transform="translate(153.000000, 179.000000)" fill-rule="nonzero" fill="#3E474C">
                <path d="M2.95890196,14.31125 C1.64,14.31125 0.571137255,13.24625 0.571137255,11.9328125 L0.571137255,2.4184375 C0.571137255,1.1046875 1.64031373,0.0396875 2.95890196,0.0396875 C4.27780392,0.0396875 5.34698039,1.1046875 5.34698039,2.4184375 L5.34698039,11.9328125 C5.34666667,13.24625 4.2774902,14.31125 2.95890196,14.31125 Z" id="Shape"></path>
            </g>
        </g>
    </g>
</svg>