<?xml version="1.0" encoding="UTF-8"?>
<svg width="588px" height="192px" viewBox="0 0 588 192" version="1.1" xmlns="http://www.w3.org/2000/svg" xmlns:xlink="http://www.w3.org/1999/xlink">
    <!-- Generator: Sketch 46.2 (44496) - http://www.bohemiancoding.com/sketch -->
    <title>lighthouse (2)</title>
    <desc>Created with Sketch.</desc>
    <defs></defs>
    <g id="Page-1" stroke="none" stroke-width="1" fill="none" fill-rule="evenodd">
        <g id="lighthouse-(2)">
            <path d="M66.8334381,179 L22.1665619,179 C15.9994886,179 11,183.93282 11,190.017655 L11,191 L78,191 L78,190.017965 C78,183.93282 73.0005114,179 66.8334381,179 Z" id="Shape" fill="#4E565A" fill-rule="nonzero"></path>
            <rect id="Rectangle-5" x="0" y="0" width="588" height="193"></rect>
            <polygon id="Shape" fill="#A0B7CB" fill-rule="nonzero" points="44.5496002 92.9706085 588 79.9280233 588 0 550.592719 0 44.5496002 79.9280233 1.70533353e-13 74.9414785 0 98"></polygon>
            <path d="M45.4998358,69 C44.1190304,69 43,67.966736 43,66.6924376 L43,57.3075624 C43,56.033264 44.1190304,55 45.4998358,55 C46.8806411,55 48,56.033264 48,57.3075624 L48,66.6921344 C48,67.966736 46.8806411,69 45.4998358,69 Z" id="Shape" fill="#3E474C" fill-rule="nonzero"></path>
            <rect id="Rectangle-path" fill="#DFCE4E" fill-rule="nonzero" x="35" y="73" width="19" height="32"></rect>
            <path d="M56.5820187,77 L33.4178545,77 C31.4899917,77 30.3400607,74.7746756 31.4094395,73.1133191 L33.9113164,69.2266382 C34.8065881,67.8356052 36.31393,67 37.9284636,67 L52.0717268,67 C53.6859432,67 55.1932852,67.8356052 56.088874,69.2266382 L58.5907509,73.1133191 C59.6598125,74.7746756 58.5098815,77 56.5820187,77 Z" id="Shape" fill="#8D472E" fill-rule="nonzero"></path>
            <path d="M44.6441002,77 L33.3556528,77 C31.4773862,77 30.3570383,74.7746756 31.3989062,73.1133191 L33.8364199,69.2266382 C34.7086599,67.8356052 36.177224,67 37.7502221,67 L40.2501489,67 C41.822838,67 43.2914022,67.8356052 44.1639511,69.2266382 L46.6014648,73.1133191 C47.6427147,74.7746756 46.5223668,77 44.6441002,77 Z" id="Shape" fill="#AB5034" fill-rule="nonzero"></path>
            <path d="M58.55308,90 L32.447563,90 C31.0958086,90 30,91.0447578 30,92.3332311 C30,93.622011 31.0958086,94.6667689 32.447563,94.6667689 L33.2633102,94.6667689 L33.2633102,101.666769 C33.2633102,102.955549 34.3591188,104 35.7105517,104 C37.0623062,104 38.1577932,102.955242 38.1577932,101.666769 L38.1577932,94.6667689 L43.0525977,94.6667689 L43.0525977,101.666769 C43.0525977,102.955549 44.1484063,104 45.4998392,104 C46.8515937,104 47.9474022,102.955242 47.9474022,101.666769 L47.9474022,94.6667689 L52.8422068,94.6667689 L52.8422068,101.666769 C52.8422068,102.955549 53.9380153,104 55.2894482,104 C56.6412027,104 57.7370113,102.955242 57.7370113,101.666769 L57.7370113,94.6667689 L58.5527584,94.6667689 C59.9045129,94.6667689 60.9999999,93.622011 60.9999999,92.3332311 C61.0003215,91.0447578 59.9045129,90 58.55308,90 Z" id="Shape" fill="#3E474C" fill-rule="nonzero"></path>
            <polygon id="Shape" fill="#A0B7CB" fill-rule="nonzero" points="60.965415 131.340526 50.1013149 118 30.7337961 118.969498 28 140.410242 45.0720241 157 64 155.141663"></polygon>
            <polygon id="Shape" fill="#8D472E" fill-rule="nonzero" points="57.6126376 105 31.7697552 105 30 118.585709 61 131"></polygon>
            <polygon id="Shape" fill="#A0B7CB" fill-rule="nonzero" points="24.303177 160.731676 22 178 67 178 66.9201869 177.40312 44.5114019 156"></polygon>
            <polygon id="Shape" fill="#8D472E" fill-rule="nonzero" points="63.9485872 154.910129 27.7489558 140 25 161.700843 67 179"></polygon>
            <g id="Group" transform="translate(25.000000, 118.000000)" fill-rule="nonzero" fill="#AB5034">
                <polygon id="Shape" points="25.7913111 30.4133023 17.6220111 22.7685349 2.91224444 21.4963953 0.0744333333 42.693907 28.9413556 53.9444302"></polygon>
                <path d="M22.3167889,4.45751163 C21.9984333,2.07711628 19.9165556,0.296372093 17.4528444,0.296372093 L5.75037778,0.296372093 L5.75005556,0.298883721 L22.6415889,6.88186047 L22.3167889,4.45751163 Z" id="Shape"></path>
            </g>
            <polygon id="Shape" fill="#BDCDD4" fill-rule="nonzero" points="46.9709875 124.558278 30.7287758 118 28 139.116972 50 148"></polygon>
            <path d="M58.7600063,112 L31.2399937,112 C30.0030152,112 29,110.955199 29,109.666689 L29,104.333311 C29,103.044801 30.0030152,102 31.2399937,102 L58.7600063,102 C59.9969848,102 61,103.044801 61,104.333311 L61,109.666689 C61,110.955528 59.9973001,112 58.7600063,112 Z" id="Shape" fill="#A0B7CB" fill-rule="nonzero"></path>
            <path d="M42,112 L31.27496,112 C30.0186723,112 29,110.955199 29,109.666689 L29,104.333311 C29,103.044801 30.0186723,102 31.27496,102 L42,102 L42,112 Z" id="Shape" fill="#BDCDD4" fill-rule="nonzero"></path>
            <polygon id="Shape" fill="#8D472E" fill-rule="nonzero" points="52.6485181 160 43 169.5 60.3511623 179 70 160"></polygon>
            <polygon id="Shape" fill="#BDCDD4" fill-rule="nonzero" points="68.4253338 160 58.8503505 169.48979 50 178.979579 58.8503505 191 78 188.469369 78 169.48979"></polygon>
            <polygon id="Shape" fill="#A0B7CB" fill-rule="nonzero" points="60 169 43 169 43 188.411746 60 191"></polygon>
            <g id="Group" transform="translate(65.000000, 177.000000)" fill-rule="nonzero" fill="#3E474C">
                <path d="M2.95890196,14.31125 C1.64,14.31125 0.571137255,13.24625 0.571137255,11.9328125 L0.571137255,2.4184375 C0.571137255,1.1046875 1.64031373,0.0396875 2.95890196,0.0396875 C4.27780392,0.0396875 5.34698039,1.1046875 5.34698039,2.4184375 L5.34698039,11.9328125 C5.34666667,13.24625 4.2774902,14.31125 2.95890196,14.31125 Z" id="Shape"></path>
            </g>
        </g>
    </g>
</svg>