<?xml version="1.0" encoding="UTF-8"?>
<svg width="676px" height="193px" viewBox="0 0 676 193" version="1.1" xmlns="http://www.w3.org/2000/svg" xmlns:xlink="http://www.w3.org/1999/xlink">
    <!-- Generator: Sketch 46.2 (44496) - http://www.bohemiancoding.com/sketch -->
    <title>lighthouse (2)</title>
    <desc>Created with Sketch.</desc>
    <defs></defs>
    <g id="Page-1" stroke="none" stroke-width="1" fill="none" fill-rule="evenodd">
        <g id="lighthouse-(2)" fill-rule="nonzero">
            <path d="M132.5,93.7207663 L662.379447,80.7135325 C683.226281,45.4862942 680.194337,24.3740599 643.812608,0.714262861 L132.5,80.7135325 L5.87885007,66.0529528 C3.64661229,65.6473192 -1.45868973,109.708264 1.06767044,109.306875 L132.5,93.7207663 Z" id="Shape" fill="#A0B7CB"></path>
            <path d="M154.833438,180 L110.166562,180 C103.999489,180 99,184.924846 99,190.999845 L99,191.980603 L166,191.980603 L166,191.000155 C166,184.924846 161.000511,180 154.833438,180 Z" id="Shape" fill="#4E565A"></path>
            <path d="M133.499836,70 C132.11903,70 131,68.966736 131,67.6924376 L131,58.3075624 C131,57.033264 132.11903,56 133.499836,56 C134.880641,56 136,57.033264 136,58.3075624 L136,67.6921344 C136,68.966736 134.880641,70 133.499836,70 Z" id="Shape" fill="#3E474C"></path>
            <rect id="Rectangle-path" fill="#DFCE4E" x="123" y="74" width="19" height="32"></rect>
            <path d="M144.582019,78 L121.417855,78 C119.489992,78 118.340061,75.7746756 119.409439,74.1133191 L121.911316,70.2266382 C122.806588,68.8356052 124.31393,68 125.928464,68 L140.071727,68 C141.685943,68 143.193285,68.8356052 144.088874,70.2266382 L146.590751,74.1133191 C147.659813,75.7746756 146.509882,78 144.582019,78 Z" id="Shape" fill="#8D472E"></path>
            <path d="M132.6441,78 L121.355653,78 C119.477386,78 118.357038,75.7746756 119.398906,74.1133191 L121.83642,70.2266382 C122.70866,68.8356052 124.177224,68 125.750222,68 L128.250149,68 C129.822838,68 131.291402,68.8356052 132.163951,70.2266382 L134.601465,74.1133191 C135.642715,75.7746756 134.522367,78 132.6441,78 Z" id="Shape" fill="#AB5034"></path>
            <path d="M146.55308,91 L120.447563,91 C119.095809,91 118,92.0447578 118,93.3332311 C118,94.622011 119.095809,95.6667689 120.447563,95.6667689 L121.26331,95.6667689 L121.26331,102.666769 C121.26331,103.955549 122.359119,105 123.710552,105 C125.062306,105 126.157793,103.955242 126.157793,102.666769 L126.157793,95.6667689 L131.052598,95.6667689 L131.052598,102.666769 C131.052598,103.955549 132.148406,105 133.499839,105 C134.851594,105 135.947402,103.955242 135.947402,102.666769 L135.947402,95.6667689 L140.842207,95.6667689 L140.842207,102.666769 C140.842207,103.955549 141.938015,105 143.289448,105 C144.641203,105 145.737011,103.955242 145.737011,102.666769 L145.737011,95.6667689 L146.552758,95.6667689 C147.904513,95.6667689 149,94.622011 149,93.3332311 C149.000321,92.0447578 147.904513,91 146.55308,91 Z" id="Shape" fill="#3E474C"></path>
            <polygon id="Shape" fill="#A0B7CB" points="148.965415 132.340526 138.101315 119 118.733796 119.969498 116 141.410242 133.072024 158 152 156.141663"></polygon>
            <polygon id="Shape" fill="#8D472E" points="145.612638 106 119.769755 106 118 119.585709 149 132"></polygon>
            <polygon id="Shape" fill="#A0B7CB" points="112.303177 161.731676 110 179 155 179 154.920187 178.40312 132.511402 157"></polygon>
            <polygon id="Shape" fill="#8D472E" points="151.948587 155.910129 115.748956 141 113 162.700843 155 180"></polygon>
            <g id="Group" transform="translate(113.000000, 119.000000)" fill="#AB5034">
                <polygon id="Shape" points="25.7913111 30.4133023 17.6220111 22.7685349 2.91224444 21.4963953 0.0744333333 42.693907 28.9413556 53.9444302"></polygon>
                <path d="M22.3167889,4.45751163 C21.9984333,2.07711628 19.9165556,0.296372093 17.4528444,0.296372093 L5.75037778,0.296372093 L5.75005556,0.298883721 L22.6415889,6.88186047 L22.3167889,4.45751163 Z" id="Shape"></path>
            </g>
            <polygon id="Shape" fill="#BDCDD4" points="134.970988 125.558278 118.728776 119 116 140.116972 138 149"></polygon>
            <path d="M146.760006,113 L119.239994,113 C118.003015,113 117,111.955199 117,110.666689 L117,105.333311 C117,104.044801 118.003015,103 119.239994,103 L146.760006,103 C147.996985,103 149,104.044801 149,105.333311 L149,110.666689 C149,111.955528 147.9973,113 146.760006,113 Z" id="Shape" fill="#A0B7CB"></path>
            <path d="M130,113 L119.27496,113 C118.018672,113 117,111.955199 117,110.666689 L117,105.333311 C117,104.044801 118.018672,103 119.27496,103 L130,103 L130,113 Z" id="Shape" fill="#BDCDD4"></path>
            <polygon id="Shape" fill="#8D472E" points="140.648518 161 131 170.5 148.351162 180 158 161"></polygon>
            <polygon id="Shape" fill="#BDCDD4" points="156.425334 161 146.850351 170.48979 138 179.979579 146.850351 192 166 189.469369 166 170.48979"></polygon>
            <polygon id="Shape" fill="#A0B7CB" points="148 170 131 170 131 189.411746 148 192"></polygon>
            <g id="Group" transform="translate(153.000000, 178.000000)" fill="#3E474C">
                <path d="M2.95890196,14.31125 C1.64,14.31125 0.571137255,13.24625 0.571137255,11.9328125 L0.571137255,2.4184375 C0.571137255,1.1046875 1.64031373,0.0396875 2.95890196,0.0396875 C4.27780392,0.0396875 5.34698039,1.1046875 5.34698039,2.4184375 L5.34698039,11.9328125 C5.34666667,13.24625 4.2774902,14.31125 2.95890196,14.31125 Z" id="Shape"></path>
            </g>
        </g>
    </g>
</svg>